<svg t="1692168338181" class="icon" viewBox="0 0 1024 1024" version="1.1" xmlns="http://www.w3.org/2000/svg" p-id="36251" width="64" height="64"><path d="M707.8 163v698H168.7V163h539.1m50-90H118.7c-22.1 0-40 17.9-40 40v798c0 22.1 17.9 40 40 40h639.1c22.1 0 40-17.9 40-40V113c0-22.1-17.9-40-40-40z" fill="#164CFF" p-id="36252"></path><path d="M598.2 303.4h-350c-19.3 0-35-15.7-35-35s15.7-35 35-35h350c19.3 0 35 15.7 35 35s-15.6 35-35 35zM498.2 455.1h-250c-19.3 0-35-15.7-35-35s15.7-35 35-35h250c19.3 0 35 15.7 35 35 0 19.4-15.6 35-35 35zM418.2 613h-170c-19.3 0-35-15.7-35-35s15.7-35 35-35h170c19.3 0 35 15.7 35 35s-15.6 35-35 35zM338.2 770.8h-90c-19.3 0-35-15.7-35-35s15.7-35 35-35h90c19.3 0 35 15.7 35 35s-15.6 35-35 35zM913.5 199.4l-115.7-24.3V911c0 21.1-16.3 38.3-36.9 39.9 19.7 1.5 38-11.8 42.1-31.6l141.4-672.4c4.6-21.7-9.2-42.9-30.9-47.5z" fill="#164CFF" p-id="36253"></path></svg>