<svg t="1692168590505" class="icon" viewBox="0 0 1024 1024" version="1.1" xmlns="http://www.w3.org/2000/svg" p-id="44382" width="64" height="64"><path d="M125.5 128.1c21-24.4 52.5-39.1 84.7-39.6h312.7c9.5 0.1 19-0.4 28.5 1 30.1 3.7 58.2 20 76.6 44.1 15.4 19.8 23.9 44.7 24 69.8v38.9h155c30.8-0.4 61.5 12.5 82.9 34.6 20.2 20.2 32.1 48.3 33 76.9 0.2 10.6 0 21.2 0.1 31.9v501.6c5.7 0.1 11.8-0.7 17.2 1.8 6.9 2.8 12.2 9.2 13.6 16.5 1.4 6.1 0 12.8-3.6 17.9-4.2 6.4-11.9 10.2-19.6 10-47.5 0.3-95.1 0.1-142.6 0.1H141.1c-16.1-0.1-32.2 0.2-48.4-0.2-7.6 0-15-4.1-19.1-10.4-6-8.9-4.7-21.8 3.1-29.2 5.2-5.4 13-7.3 20.3-6.6V202.6c0.3-27.3 10.5-54.2 28.5-74.5m139.3 122.1c-19.8 1.3-38.6 12.7-48.9 29.6-8.6 13.6-11.4 30.5-8.2 46.2 3.1 15 11.9 28.8 24.2 37.8 10.6 7.9 23.8 12.2 37 12.4h211.6c20-0.2 39.5-10.6 50.8-27.1 9.2-13.1 12.9-29.8 10.5-45.6-2.2-14.6-9.7-28.3-20.8-37.9-10.6-9.4-24.6-15-38.8-15.5-72.5 0.1-144.9 0-217.4 0.1m443.1 174.5c-7.5 0.9-14.3 5.7-17.7 12.4-3.1 5.9-3.3 13.2-0.9 19.4 2.5 6.3 8 11.4 14.5 13.4 3.5 1.2 7.2 1.2 10.8 1.1h88.9c9.3 0 18.3-6 21.5-14.8 3.3-8.2 1.4-18.2-4.8-24.5-4.3-4.6-10.5-7.4-16.8-7.2-31.7 0.2-63.6-0.1-95.5 0.2M259 438c-14.8 2.4-28.7 10.4-38.2 22.1-9.3 11.2-14.6 25.7-14.3 40.3-0.2 14.2 4.9 28.2 13.7 39.3 8.7 11 21.2 18.9 34.8 22 7.1 1.7 14.4 1.8 21.7 1.7h188.2c8.7-0.1 17.5 0.4 26.1-1.1 19.9-3.5 37.5-17.3 45.8-35.7 6.3-13.5 7.4-29.3 3.3-43.7-4.1-14.8-13.9-27.9-27-36-10-6.4-21.8-9.7-33.6-9.8H272.3c-4.4-0.1-8.9 0.2-13.3 0.9m445.6 126.1c-10.2 2.7-17.7 13-16.8 23.6 0.2 9.7 7.5 18.7 16.9 21.2 3.5 1.1 7.2 0.7 10.8 0.8h89c9.8-0.1 18.9-7.4 21.4-16.9 1.8-6.6 0.7-14.1-3.4-19.7-4.2-6.1-11.5-9.9-18.9-9.9h-88.2c-3.6 0-7.3-0.2-10.8 0.9m-438.9 68.7c-20.3 1-39.7 12.7-50.1 30.1-8.3 13.4-11 30-7.9 45.4 2.3 11.7 8.1 22.7 16.4 31.2 11.1 11.7 27 18.8 43.1 19.2h214.2c20.1-0.3 39.5-11.2 50.6-28 9.4-14 12.7-31.8 9.2-48.2-2.8-13.9-10.7-26.7-21.7-35.6-11.1-9.2-25.5-14.3-39.9-14.3-71.3 0.2-142.6 0-213.9 0.2m439.8 62.6c-8.3 1.9-15.2 8.8-17.1 17-1.1 5-0.8 10.3 1.3 15 3.4 7.7 11.2 13.4 19.7 13.7h92.4c12.6 1.3 24.8-9.5 24.9-22.2 0.4-7.8-3.5-15.8-10-20.1-4.1-2.9-9.1-4.2-14-4.1h-85.4c-4 0-8-0.3-11.8 0.7z" p-id="44383" fill="#164CFF"></path><path d="M265.7 296.7c1.1-0.3 2.2-0.4 3.2-0.4h211.6c8.9 0.3 16.5 8.7 15.8 17.6-0.2 8.7-8 16.1-16.7 16.1H269.7c-5.5 0-11-2.8-14.1-7.4-3.4-4.8-3.9-11.3-1.4-16.6 2.2-4.6 6.5-8.1 11.5-9.3zM268.3 483.4c70.2-0.2 140.4 0 210.6-0.1 6.2-0.1 12.3 3.2 15.3 8.7 3.7 6.1 2.6 14.5-2.3 19.7-3.5 3.9-8.7 5.6-13.9 5.6H272.4c-3.5 0-7.2-0.2-10.4-2-5.8-2.9-9.7-9.3-9.2-15.8 0.1-8.3 7.3-15.6 15.5-16.1zM266.5 679.2c10.6-0.6 21.2-0.1 31.7-0.3h181.4c5.3 0.1 10.6 2.8 13.6 7.3 3.4 4.7 4 11.4 1.5 16.6-2.6 5.8-8.7 9.8-15.1 9.8H268.8c-5.5-0.1-10.7-3.2-13.6-7.8-3.2-4.9-3.5-11.7-0.7-16.8 2.4-4.6 7-7.8 12-8.8z" p-id="44384" fill="#164CFF"></path></svg>