<svg t="1692167709299" class="icon" viewBox="0 0 1024 1024" version="1.1" xmlns="http://www.w3.org/2000/svg" p-id="22353" width="64" height="64"><path d="M706.2 733.7c-3.4 4-117.1 16.4-117.1 16.4-8.9 1.5-18-5.7-18.5-14.8 0 0-12.6-119.5-9.2-123.5l226.8-269.5V187.9c0-25.2-20.6-45.8-45.8-45.8H285.3c-25.2 0-45.8 20.6-45.8 45.8v645.9c0 25.2 20.6 45.8 45.8 45.8h457.2c25.2 0 45.8-20.6 45.8-45.8V636.2l-82.1 97.5zM301.6 280.2c0-6.7 5.5-12.2 12.2-12.2H566c6.7 0 12.2 5.5 12.2 12.2v34.2c0 6.7-5.5 12.2-12.2 12.2H313.8c-6.7 0-12.2-5.5-12.2-12.2v-34.2z m206.2 201.1c0 6.7-5.5 12.2-12.2 12.2H313.8c-6.7 0-12.2-5.5-12.2-12.2v-34.2c0-6.7 5.5-12.2 12.2-12.2h181.8c6.7 0 12.2 5.5 12.2 12.2v34.2z" fill="#FF4C1F" p-id="22354"></path><path d="M607.6 721.8c-6.3 1.5-12.4-3.4-12.4-9.9 0 0-4-85.3-1.5-88.2L839.2 332c4.3-5.1 12.1-5.8 17.2-1.5l78.2 65.8c5.1 4.3 5.8 12.1 1.5 17.2L690.6 705.2c-2.5 3-83 16.6-83 16.6z" fill="#FF4C1F" p-id="22355"></path></svg>