<svg t="1692168228526" class="icon" viewBox="0 0 1024 1024" version="1.1" xmlns="http://www.w3.org/2000/svg" p-id="35083" id="mx_n_1692168228528" width="64" height="64"><path d="M895.648 160H128.32C110.528 160 96 174.208 96 191.68v535.904c0 17.472 14.528 31.68 32.352 31.68h317.632v73.312H203.136c-17.824 0-32.32 14.24-32.32 31.712 0 17.504 14.496 31.712 32.32 31.712h617.728c17.824 0 32.32-14.208 32.32-31.68 0-17.504-14.496-31.744-32.32-31.744h-242.88v-73.28h317.664c17.824 0 32.352-14.24 32.352-31.712V191.712C928 174.208 913.472 160 895.648 160z m-32.352 535.872H160.704V223.424h702.592v472.448z" fill="#15B112" p-id="35084"></path><path d="M237.376 602.368a31.808 31.808 0 0 0 18.08 5.632c9.92 0 19.712-4.576 25.824-13.088l89.504-124.256 82.784 56.704c6.848 4.64 15.296 6.496 23.488 5.088a31.616 31.616 0 0 0 20.32-12.64l60.928-84.608 84.64 58.016c6.848 4.64 15.296 6.496 23.488 5.12a31.616 31.616 0 0 0 20.32-12.672l107.52-149.248a30.304 30.304 0 0 0-7.648-42.848 32.064 32.064 0 0 0-43.904 7.488l-89.408 124.16-84.672-58.016a32.192 32.192 0 0 0-23.488-5.088 31.616 31.616 0 0 0-20.32 12.64l-60.928 84.608-82.752-56.704a32.064 32.064 0 0 0-43.904 7.456l-107.52 149.536a30.208 30.208 0 0 0 7.648 42.72z" fill="#15B112" p-id="35085"></path></svg>