<svg t="1692168512587" class="icon" viewBox="0 0 1024 1024" version="1.1" xmlns="http://www.w3.org/2000/svg" p-id="41815" width="64" height="64"><path d="M983.035572 831.896712c19.277394 56.922336 15.353677 110.034685-10.520112 146.087394-21.438282 29.968103-56.069354 45.833569-100.026363 45.833569H151.09374c-44.013874 0-78.58808-15.808601-100.026362-45.606108-25.703193-35.825246-29.683776-88.482672-10.918171-144.49516 1.194175-2.331484 125.1609-233.944545 328.568688-568.484107V79.566539h-5.970874a39.692098 39.692098 0 0 1-39.748964-39.578367A40.033291 40.033291 0 0 1 362.747021 0.239208l298.373123 0.113731a39.692098 39.692098 0 0 1-0.113731 79.2136h-5.970874v185.608895c201.644958 331.639423 326.805858 564.446659 328.000033 566.721278zM161.158928 900.362738c17.855758 24.907076 53.055484 37.53121 104.5756 37.531211h541.074951l0.682386 0.056865c5.743413 0.739251 11.828018 1.137309 17.969488 1.13731 16.718448 0 46.857148-2.957004 60.846054-22.97365 11.031901-15.808601 10.804439-39.91956-0.682386-71.707358l-16.718448-32.925108h-710.81838l-6.198336 13.81831c-1.990291 6.65326-12.169211 45.208049 9.269071 75.06242z m411.137351-807.489679H457.086836v115.436905h115.209443v-115.436905z m11.941749 212.676859l-6.02774-10.065188H445.656877l-6.02774 10.008323c-38.554789 63.348134-133.463259 228.371729-190.158133 326.976455-19.902915 34.631071-35.597784 61.926497-40.488215 70.228855-3.01387 5.914009-7.051318 14.216368-11.373094 23.201112h628.363448a780.478581 780.478581 0 0 1-6.53953-13.420251c-7.563108-16.263525-181.059658-318.105441-235.195585-406.929306z m0.739251 363.313491a59.196955 59.196955 0 0 1 0-118.450775 59.25382 59.25382 0 0 1 0 118.450775z m-43.445219-133.804452a44.18447 44.18447 0 0 1 0-88.25521 44.18447 44.18447 0 0 1 0 88.25521z m-106.395295 103.95008a57.889049 57.889049 0 0 1 0-115.721233 57.889049 57.889049 0 0 1 0 115.721233z" p-id="41816" fill="#15B112"></path></svg>