<svg t="1692182787817" class="icon" viewBox="0 0 1024 1024" version="1.1" xmlns="http://www.w3.org/2000/svg" p-id="5903" width="64" height="64"><path d="M128 224C128 206.336 142.336 192 160 192l704 0C881.664 192 896 206.336 896 224l0 0C896 241.664 881.664 256 864 256l-704 0C142.336 256 128 241.664 128 224L128 224zM256 416C256 433.664 270.336 448 288 448l448 0C753.664 448 768 433.664 768 416l0 0C768 398.336 753.664 384 736 384l-448 0C270.336 384 256 398.336 256 416L256 416zM128 608C128 625.664 142.336 640 160 640l704 0c17.664 0 32-14.336 32-32l0 0C896 590.336 881.664 576 864 576l-704 0C142.336 576 128 590.336 128 608L128 608zM256 800C256 817.664 270.336 832 288 832l448 0c17.664 0 32-14.336 32-32l0 0c0-17.664-14.336-32-32-32l-448 0C270.336 768 256 782.336 256 800L256 800z" p-id="5904"></path></svg>