<svg t="1692182874261" class="icon" viewBox="0 0 1024 1024" version="1.1" xmlns="http://www.w3.org/2000/svg" p-id="6403" width="64" height="64"><path d="M128 224C128 206.336 142.336 192 160 192l704 0C881.664 192 896 206.336 896 224l0 0C896 241.664 881.664 256 864 256l-704 0C142.336 256 128 241.664 128 224L128 224zM128 416C128 433.664 142.336 448 160 448l704 0C881.664 448 896 433.664 896 416l0 0C896 398.336 881.664 384 864 384l-704 0C142.336 384 128 398.336 128 416L128 416zM128 608C128 625.664 142.336 640 160 640l704 0c17.664 0 32-14.336 32-32l0 0C896 590.336 881.664 576 864 576l-704 0C142.336 576 128 590.336 128 608L128 608zM128 800C128 817.664 142.336 832 160 832l704 0c17.664 0 32-14.336 32-32l0 0c0-17.664-14.336-32-32-32l-704 0C142.336 768 128 782.336 128 800L128 800z" p-id="6404"></path></svg>