<svg t="1692182853661" class="icon" viewBox="0 0 1024 1024" version="1.1" xmlns="http://www.w3.org/2000/svg" p-id="6153" width="64" height="64"><path d="M896 224C896 241.664 881.664 256 864 256l-704 0C142.336 256 128 241.664 128 224l0 0C128 206.336 142.336 192 160 192l704 0C881.664 192 896 206.336 896 224L896 224zM896 416C896 398.336 881.664 384 864 384l-512 0C334.336 384 320 398.336 320 416l0 0C320 433.664 334.336 448 352 448l512 0C881.664 448 896 433.664 896 416L896 416zM896 608C896 590.336 881.664 576 864 576l-704 0C142.336 576 128 590.336 128 608l0 0C128 625.664 142.336 640 160 640l704 0C881.664 640 896 625.664 896 608L896 608zM896 800c0-17.664-14.336-32-32-32l-512 0C334.336 768 320 782.336 320 800l0 0C320 817.664 334.336 832 352 832l512 0C881.664 832 896 817.664 896 800L896 800z" p-id="6154"></path></svg>