<svg t="1692182900416" class="icon" viewBox="0 0 1024 1024" version="1.1" xmlns="http://www.w3.org/2000/svg" p-id="6653" width="64" height="64"><path d="M64 96C64 78.336 78.336 64 96 64l832 0C945.664 64 960 78.336 960 96l0 0C960 113.664 945.664 128 928 128l-832 0C78.336 128 64 113.664 64 96L64 96zM64 864C64 881.664 78.336 896 96 896l832 0c17.664 0 32-14.336 32-32l0 0c0-17.664-14.336-32-32-32l-832 0C78.336 832 64 846.336 64 864L64 864zM320 288C320 305.664 334.336 320 352 320l576 0C945.664 320 960 305.664 960 288l0 0C960 270.336 945.664 256 928 256l-576 0C334.336 256 320 270.336 320 288L320 288zM320 480C320 497.664 334.336 512 352 512l576 0C945.664 512 960 497.664 960 480l0 0C960 462.336 945.664 448 928 448l-576 0C334.336 448 320 462.336 320 480L320 480zM320 672C320 689.664 334.336 704 352 704l576 0c17.664 0 32-14.336 32-32l0 0c0-17.664-14.336-32-32-32l-576 0C334.336 640 320 654.336 320 672L320 672zM219.648 637.312 70.4 488C66.112 483.776 64 478.72 64 473.024s2.112-10.752 6.4-14.976l149.248-149.376c4.288-4.224 9.28-6.272 15.104-6.272 5.696 0 10.624 1.984 14.976 6.272C253.952 312.896 256 317.888 256 323.648l0 298.752c0 5.76-2.048 10.752-6.272 14.912-4.352 4.288-9.344 6.4-14.976 6.4C228.864 643.712 223.936 641.6 219.648 637.312z" p-id="6654"></path></svg>