<svg t="1692182732944" class="icon" viewBox="0 0 1024 1024" version="1.1" xmlns="http://www.w3.org/2000/svg" p-id="5653" width="64" height="64"><path d="M128 224C128 241.664 142.336 256 160 256l704 0C881.664 256 896 241.664 896 224l0 0C896 206.336 881.664 192 864 192l-704 0C142.336 192 128 206.336 128 224L128 224zM128 416C128 398.336 142.336 384 160 384l512 0C689.664 384 704 398.336 704 416l0 0C704 433.664 689.664 448 672 448l-512 0C142.336 448 128 433.664 128 416L128 416zM128 608C128 590.336 142.336 576 160 576l704 0C881.664 576 896 590.336 896 608l0 0c0 17.664-14.336 32-32 32l-704 0C142.336 640 128 625.664 128 608L128 608zM128 800C128 782.336 142.336 768 160 768l512 0c17.664 0 32 14.336 32 32l0 0c0 17.664-14.336 32-32 32l-512 0C142.336 832 128 817.664 128 800L128 800z" p-id="5654"></path></svg>